<svg width="2272" height="2271" viewBox="0 0 2272 2271" fill="none" xmlns="http://www.w3.org/2000/svg">
<g opacity="0.33" filter="url(#filter0_d_1_593)">
<path opacity="0.05" d="M1136 2034.87C1632.71 2034.87 2035.37 1632.21 2035.37 1135.5C2035.37 638.792 1632.71 236.131 1136 236.131C639.291 236.131 236.63 638.792 236.63 1135.5C236.63 1632.21 639.291 2034.87 1136 2034.87Z" stroke="url(#paint0_linear_1_593)" stroke-linecap="round" stroke-dasharray="1000 1000"/>
<path opacity="0.1" d="M1387 1956.48C1840.41 1817.85 2095.6 1337.92 1956.98 884.502C1818.35 431.089 1338.41 175.9 885.002 314.523C431.588 453.145 176.4 933.085 315.022 1386.5C453.645 1839.91 933.584 2095.1 1387 1956.48Z" stroke="url(#paint1_linear_1_593)" stroke-linecap="round" stroke-dasharray="1000 1000"/>
<path opacity="0.14" d="M1593.2 1813.33C1967.56 1560.82 2066.33 1052.65 1813.83 678.299C1561.32 303.945 1053.15 205.167 678.799 457.672C304.445 710.177 205.667 1218.35 458.172 1592.7C710.677 1967.06 1218.85 2065.83 1593.2 1813.33Z" stroke="url(#paint2_linear_1_593)" stroke-linecap="round" stroke-dasharray="1000 1000"/>
<path opacity="0.19" d="M1739.63 1624.31C2009.59 1290.93 1958.19 801.831 1624.81 531.869C1291.43 261.906 802.331 313.313 532.369 646.689C262.406 980.065 313.813 1469.17 647.189 1739.13C980.565 2009.09 1469.67 1957.69 1739.63 1624.31Z" stroke="url(#paint3_linear_1_593)" stroke-linecap="round" stroke-dasharray="1000 1000"/>
<path opacity="0.23" d="M1822.97 1399.2C1968.61 1019.8 1779.11 594.167 1399.7 448.527C1020.3 302.887 594.666 492.391 449.027 871.796C303.387 1251.2 492.891 1676.83 872.295 1822.47C1251.7 1968.11 1677.33 1778.61 1822.97 1399.2Z" stroke="url(#paint4_linear_1_593)" stroke-linecap="round" stroke-dasharray="1000 1000"/>
<path opacity="0.28" d="M1829.27 1183.98C1856.05 801.094 1567.36 469 1184.48 442.226C801.593 415.452 469.498 704.137 442.725 1087.02C415.951 1469.91 704.636 1802 1087.52 1828.78C1470.41 1855.55 1802.5 1566.86 1829.27 1183.98Z" stroke="url(#paint5_linear_1_593)" stroke-linecap="round" stroke-dasharray="1000 1000"/>
<path opacity="0.32" d="M1773.32 988.363C1692.06 636.379 1340.85 416.916 988.862 498.178C636.878 579.44 417.415 930.654 498.677 1282.64C579.939 1634.62 931.154 1854.09 1283.14 1772.82C1635.12 1691.56 1854.58 1340.35 1773.32 988.363Z" stroke="url(#paint6_linear_1_593)" stroke-linecap="round" stroke-dasharray="1000 1000"/>
<path opacity="0.37" d="M1667.05 828.896C1497.72 535.604 1122.69 435.115 829.397 604.447C536.105 773.78 435.615 1148.81 604.948 1442.1C774.28 1735.4 1149.31 1835.88 1442.6 1666.55C1735.9 1497.22 1836.38 1122.19 1667.05 828.896Z" stroke="url(#paint7_linear_1_593)" stroke-linecap="round" stroke-dasharray="881 1000"/>
<path opacity="0.41" d="M1526.33 716.927C1295.15 501.356 932.998 514.003 717.427 745.174C501.856 976.346 514.503 1338.5 745.674 1554.07C976.846 1769.64 1339 1757 1554.57 1525.83C1770.14 1294.65 1757.5 932.498 1526.33 716.927Z" stroke="url(#paint8_linear_1_593)" stroke-linecap="round" stroke-dasharray="764 1000"/>
<path opacity="0.46" d="M1368.97 657.839C1105.17 529.173 787.006 638.725 658.34 902.529C529.674 1166.33 639.225 1484.49 903.029 1613.16C1166.83 1741.83 1484.99 1632.27 1613.66 1368.47C1742.33 1104.67 1632.77 786.506 1368.97 657.839Z" stroke="url(#paint9_linear_1_593)" stroke-linecap="round" stroke-dasharray="655 1000"/>
<path opacity="0.5" d="M1212.74 650.975C945.145 608.592 693.857 791.163 651.474 1058.76C609.091 1326.36 791.663 1577.64 1059.26 1620.03C1326.85 1662.41 1578.14 1479.84 1620.53 1212.24C1662.91 944.646 1480.34 693.358 1212.74 650.975Z" stroke="url(#paint10_linear_1_593)" stroke-linecap="round" stroke-dasharray="554 1000"/>
<path opacity="0.55" d="M1065.65 691.351C820.357 730.202 653 960.549 691.851 1205.85C730.702 1451.14 961.049 1618.5 1206.35 1579.65C1451.64 1540.8 1619 1310.45 1580.15 1065.15C1541.3 819.857 1310.95 652.5 1065.65 691.351Z" stroke="url(#paint11_linear_1_593)" stroke-linecap="round" stroke-dasharray="462 1000"/>
<path opacity="0.59" d="M956.792 768.069C753.865 867.043 669.595 1111.78 768.569 1314.71C867.543 1517.63 1112.28 1601.9 1315.21 1502.93C1518.13 1403.96 1602.4 1159.22 1503.43 956.292C1404.46 753.365 1159.72 669.095 956.792 768.069Z" stroke="url(#paint12_linear_1_593)" stroke-linecap="round" stroke-dasharray="378 1000"/>
<path opacity="0.64" d="M885.076 866.418C736.466 1005 728.336 1237.81 866.917 1386.42C1005.5 1535.03 1238.31 1543.16 1386.92 1404.58C1535.53 1266 1543.66 1033.19 1405.08 884.577C1266.5 735.966 1033.69 727.836 885.076 866.418Z" stroke="url(#paint13_linear_1_593)" stroke-linecap="round" stroke-dasharray="302 933"/>
<path opacity="0.68" d="M852.772 971.978C762.462 1128.4 816.056 1328.42 972.479 1418.73C1128.9 1509.04 1328.92 1455.44 1419.23 1299.02C1509.54 1142.6 1455.94 942.583 1299.52 852.272C1143.1 761.962 943.083 815.556 852.772 971.978Z" stroke="url(#paint14_linear_1_593)" stroke-linecap="round" stroke-dasharray="235 829"/>
<path opacity="0.73" d="M857.171 1071.13C821.619 1225.12 917.634 1378.78 1071.63 1414.33C1225.62 1449.88 1379.28 1353.87 1414.83 1199.87C1450.38 1045.88 1354.37 892.223 1200.37 856.671C1046.38 821.119 892.723 917.134 857.171 1071.13Z" stroke="url(#paint15_linear_1_593)" stroke-linecap="round" stroke-dasharray="176 726"/>
<path opacity="0.77" d="M891.314 1152.61C900.764 1287.75 1017.97 1389.63 1153.11 1380.19C1288.25 1370.74 1390.13 1253.53 1380.68 1118.39C1371.23 983.254 1254.02 881.366 1118.89 890.815C983.753 900.265 881.864 1017.47 891.314 1152.61Z" stroke="url(#paint16_linear_1_593)" stroke-linecap="round" stroke-dasharray="126 622"/>
<path opacity="0.82" d="M945.174 1208.75C985.629 1314.14 1103.86 1366.78 1209.25 1326.33C1314.64 1285.87 1367.28 1167.64 1326.83 1062.25C1286.37 956.859 1168.14 904.219 1062.75 944.674C957.358 985.13 904.718 1103.36 945.174 1208.75Z" stroke="url(#paint17_linear_1_593)" stroke-linecap="round" stroke-dasharray="84 518"/>
<path opacity="0.86" d="M1008.92 1238.41C1065.75 1308.59 1168.72 1319.42 1238.91 1262.58C1309.09 1205.75 1319.91 1102.78 1263.08 1032.59C1206.25 962.408 1103.28 951.586 1033.09 1008.42C962.908 1065.25 952.086 1168.22 1008.92 1238.41Z" stroke="url(#paint18_linear_1_593)" stroke-linecap="round" stroke-dasharray="50 415"/>
<path opacity="0.91" d="M1067.42 1237.17C1123.57 1275.05 1199.8 1260.23 1237.67 1204.08C1275.55 1147.93 1260.73 1071.7 1204.58 1033.83C1148.43 995.949 1072.2 1010.77 1034.33 1066.92C996.45 1123.07 1011.27 1199.3 1067.42 1237.17Z" stroke="url(#paint19_linear_1_593)" stroke-linecap="round" stroke-dasharray="25 311"/>
<path opacity="0.95" d="M1112.1 1213.69C1155.28 1226.89 1200.99 1202.59 1214.19 1159.4C1227.39 1116.22 1203.09 1070.51 1159.91 1057.31C1116.72 1044.11 1071.01 1068.41 1057.81 1111.6C1044.61 1154.78 1068.91 1200.49 1112.1 1213.69Z" stroke="url(#paint20_linear_1_593)" stroke-linecap="round" stroke-dasharray="8 207"/>
<path d="M1136 1176.38C1158.58 1176.38 1176.88 1158.08 1176.88 1135.5C1176.88 1112.92 1158.58 1094.62 1136 1094.62C1113.42 1094.62 1095.12 1112.92 1095.12 1135.5C1095.12 1158.08 1113.42 1176.38 1136 1176.38Z" stroke="url(#paint21_linear_1_593)" stroke-linecap="round"/>
</g>
<defs>
<filter id="filter0_d_1_593" x="-3.0293" y="0.470703" width="2278.06" height="2278.06" filterUnits="userSpaceOnUse" color-interpolation-filters="sRGB">
<feFlood flood-opacity="0" result="BackgroundImageFix"/>
<feColorMatrix in="SourceAlpha" type="matrix" values="0 0 0 0 0 0 0 0 0 0 0 0 0 0 0 0 0 0 127 0" result="hardAlpha"/>
<feOffset dy="4"/>
<feGaussianBlur stdDeviation="2"/>
<feComposite in2="hardAlpha" operator="out"/>
<feColorMatrix type="matrix" values="0 0 0 0 0 0 0 0 0 0 0 0 0 0 0 0 0 0 0.25 0"/>
<feBlend mode="normal" in2="BackgroundImageFix" result="effect1_dropShadow_1_593"/>
<feBlend mode="normal" in="SourceGraphic" in2="effect1_dropShadow_1_593" result="shape"/>
</filter>
<linearGradient id="paint0_linear_1_593" x1="90173.6" y1="236.131" x2="90173.6" y2="180110" gradientUnits="userSpaceOnUse">
<stop stop-color="#1F89DB"/>
<stop offset="0.28125" stop-color="#F42A8B"/>
</linearGradient>
<linearGradient id="paint1_linear_1_593" x1="82161.8" y1="-24534.3" x2="132361" y2="139661" gradientUnits="userSpaceOnUse">
<stop stop-color="#1F89DB"/>
<stop offset="0.28125" stop-color="#F42A8B"/>
</linearGradient>
<linearGradient id="paint2_linear_1_593" x1="67783.8" y1="-44805.2" x2="159224" y2="90760.4" gradientUnits="userSpaceOnUse">
<stop stop-color="#1F89DB"/>
<stop offset="0.28125" stop-color="#F42A8B"/>
</linearGradient>
<linearGradient id="paint3_linear_1_593" x1="48924.7" y1="-59112.8" x2="169651" y2="38649.4" gradientUnits="userSpaceOnUse">
<stop stop-color="#1F89DB"/>
<stop offset="0.28125" stop-color="#F42A8B"/>
</linearGradient>
<linearGradient id="paint4_linear_1_593" x1="26555.8" y1="-67138.5" x2="163950" y2="-14397.7" gradientUnits="userSpaceOnUse">
<stop stop-color="#1F89DB"/>
<stop offset="0.28125" stop-color="#F42A8B"/>
</linearGradient>
<linearGradient id="paint5_linear_1_593" x1="5242.09" y1="-67547.2" x2="143897" y2="-57851.5" gradientUnits="userSpaceOnUse">
<stop stop-color="#1F89DB"/>
<stop offset="0.28125" stop-color="#F42A8B"/>
</linearGradient>
<linearGradient id="paint6_linear_1_593" x1="-14067.9" y1="-61812.3" x2="113397" y2="-91239.8" gradientUnits="userSpaceOnUse">
<stop stop-color="#1F89DB"/>
<stop offset="0.28125" stop-color="#F42A8B"/>
</linearGradient>
<linearGradient id="paint7_linear_1_593" x1="-29748.8" y1="-51132.1" x2="76461.7" y2="-112453" gradientUnits="userSpaceOnUse">
<stop stop-color="#1F89DB"/>
<stop offset="0.28125" stop-color="#F42A8B"/>
</linearGradient>
<linearGradient id="paint8_linear_1_593" x1="-40693" y1="-37088.2" x2="37372.1" y2="-120803" gradientUnits="userSpaceOnUse">
<stop stop-color="#1F89DB"/>
<stop offset="0.28125" stop-color="#F42A8B"/>
</linearGradient>
<linearGradient id="paint9_linear_1_593" x1="-46385.3" y1="-21450.9" x2="208.759" y2="-116983" gradientUnits="userSpaceOnUse">
<stop stop-color="#1F89DB"/>
<stop offset="0.28125" stop-color="#F42A8B"/>
</linearGradient>
<linearGradient id="paint10_linear_1_593" x1="-46908.8" y1="-5977.36" x2="-31560.5" y2="-102882" gradientUnits="userSpaceOnUse">
<stop stop-color="#1F89DB"/>
<stop offset="0.28125" stop-color="#F42A8B"/>
</linearGradient>
<linearGradient id="paint11_linear_1_593" x1="-42764.4" y1="8543.92" x2="-56833.6" y2="-80285.8" gradientUnits="userSpaceOnUse">
<stop stop-color="#1F89DB"/>
<stop offset="0.28125" stop-color="#F42A8B"/>
</linearGradient>
<linearGradient id="paint12_linear_1_593" x1="-35060.5" y1="19244.5" x2="-70902.1" y2="-54241.7" gradientUnits="userSpaceOnUse">
<stop stop-color="#1F89DB"/>
<stop offset="0.28125" stop-color="#F42A8B"/>
</linearGradient>
<linearGradient id="paint13_linear_1_593" x1="-25252.2" y1="26246" x2="-75437" y2="-27570.5" gradientUnits="userSpaceOnUse">
<stop stop-color="#1F89DB"/>
<stop offset="0.28125" stop-color="#F42A8B"/>
</linearGradient>
<linearGradient id="paint14_linear_1_593" x1="-14769.4" y1="29338.6" x2="-71415" y2="-3365.76" gradientUnits="userSpaceOnUse">
<stop stop-color="#1F89DB"/>
<stop offset="0.28125" stop-color="#F42A8B"/>
</linearGradient>
<linearGradient id="paint15_linear_1_593" x1="-4958.07" y1="28803.9" x2="-60723.8" y2="15929.4" gradientUnits="userSpaceOnUse">
<stop stop-color="#1F89DB"/>
<stop offset="0.28125" stop-color="#F42A8B"/>
</linearGradient>
<linearGradient id="paint16_linear_1_593" x1="3074.58" y1="25342.2" x2="-45862.4" y2="28764.2" gradientUnits="userSpaceOnUse">
<stop stop-color="#1F89DB"/>
<stop offset="0.28125" stop-color="#F42A8B"/>
</linearGradient>
<linearGradient id="paint17_linear_1_593" x1="8578.69" y1="19954" x2="-29586.5" y2="34604.2" gradientUnits="userSpaceOnUse">
<stop stop-color="#1F89DB"/>
<stop offset="0.28125" stop-color="#F42A8B"/>
</linearGradient>
<linearGradient id="paint18_linear_1_593" x1="11450.9" y1="13613.5" x2="-13965.1" y2="34195.1" gradientUnits="userSpaceOnUse">
<stop stop-color="#1F89DB"/>
<stop offset="0.28125" stop-color="#F42A8B"/>
</linearGradient>
<linearGradient id="paint19_linear_1_593" x1="11270.3" y1="7823.26" x2="-2445.7" y2="28158.1" gradientUnits="userSpaceOnUse">
<stop stop-color="#1F89DB"/>
<stop offset="0.28125" stop-color="#F42A8B"/>
</linearGradient>
<linearGradient id="paint20_linear_1_593" x1="8900.55" y1="3423.86" x2="4119.63" y2="19061.5" gradientUnits="userSpaceOnUse">
<stop stop-color="#1F89DB"/>
<stop offset="0.28125" stop-color="#F42A8B"/>
</linearGradient>
<linearGradient id="paint21_linear_1_593" x1="5183.16" y1="1094.62" x2="5183.16" y2="9270.71" gradientUnits="userSpaceOnUse">
<stop stop-color="#1F89DB"/>
<stop offset="0.28125" stop-color="#F42A8B"/>
</linearGradient>
</defs>
</svg>
